<svg width="25" height="25" viewBox="0 0 25 25" fill="none" xmlns="http://www.w3.org/2000/svg">
<path d="M19.0689 21.579H8.06894V7.57898H19.0689M19.0689 5.57898H8.06894C7.53851 5.57898 7.0298 5.78969 6.65473 6.16477C6.27965 6.53984 6.06894 7.04855 6.06894 7.57898V21.579C6.06894 22.1094 6.27965 22.6181 6.65473 22.9932C7.0298 23.3683 7.53851 23.579 8.06894 23.579H19.0689C19.5994 23.579 20.1081 23.3683 20.4832 22.9932C20.8582 22.6181 21.0689 22.1094 21.0689 21.579V7.57898C21.0689 7.04855 20.8582 6.53984 20.4832 6.16477C20.1081 5.78969 19.5994 5.57898 19.0689 5.57898ZM16.0689 1.57898H4.06894C3.53851 1.57898 3.0298 1.78969 2.65473 2.16477C2.27965 2.53984 2.06894 3.04855 2.06894 3.57898V17.579H4.06894V3.57898H16.0689V1.57898Z" fill="#9A9FA7"/>
</svg>
